<?xml version="1.0" encoding="UTF-8"?>
<svg width="1092px" height="286px" viewBox="0 0 1092 286" version="1.1" xmlns="http://www.w3.org/2000/svg" xmlns:xlink="http://www.w3.org/1999/xlink">
    <!-- Generator: Sketch 58 (84663) - https://sketch.com -->
    <title>nearbuy_red</title>
    <desc>Created with Sketch.</desc>
    <g id="Page-1" stroke="none" stroke-width="1" fill="none" fill-rule="evenodd">
        <g id="nearbuy_red" fill-rule="nonzero">
            <path d="M496.74,79.16 C497.27,82.9 497.47,181.32 497.07,213.37 C497.07,214.22 496.96,215.08 496.9,216.06 C496.243881,216.228436 495.574921,216.342159 494.9,216.4 C483.466667,216.4 472.036667,216.4 460.61,216.4 C460.08,216.4 459.54,216.3 458.81,216.23 C458.640641,215.512779 458.523666,214.78419 458.46,214.05 C458.46,210.79 458.46,207.52 458.46,204.26 L458.46,200.7 C457.879855,200.831096 457.321043,201.043175 456.8,201.33 C452.893614,204.610677 448.593858,207.392082 444,209.61 C438.115646,212.385182 431.860934,214.29494 425.43,215.28 C419.77,216.18 414.15,215.53 408.51,215.78 C401.34,214.7 394.23,213.4 387.44,210.63 C379.828067,207.66142 372.772172,203.428559 366.57,198.11 C361.279035,193.571684 356.650633,188.313819 352.82,182.49 C344.389105,169.475732 339.934109,154.286348 339.99928,138.78 C339.99928,120.52 345.22,103.88 356.41,89.36 C365.725231,77.1536908 378.684198,68.2295155 393.41,63.88 C397.89087,62.6037127 402.45527,61.6413796 407.07,61 C409.97959,60.6295497 412.907335,60.4192328 415.84,60.37 C416.818537,60.3821247 417.794715,60.4690447 418.76,60.63 C419.41,60.7 420.05,60.89 420.69,60.9 C426.86,60.97 432.69,62.59 438.41,64.67 C445.452148,67.316131 451.949539,71.2308343 457.58,76.22 C462.365642,80.3869132 468.319132,82.9778163 474.63,83.64 C476.43462,84.0169335 478.277151,84.1813853 480.12,84.13 C485.42,83.52 490.63,82.53 495.3,79.73 C495.767539,79.5099156 496.248494,79.3195377 496.74,79.16 L496.74,79.16 Z M379,139.79 C378.859751,141.851776 378.879811,143.92133 379.06,145.98 C379.749066,150.494505 381.239142,154.849592 383.46,158.84 C385.42205,162.483251 387.942591,165.796733 390.93,168.66 C394.623018,172.051902 398.88932,174.760666 403.53,176.66 C408.041129,178.516452 412.853463,179.533142 417.73,179.66 C420.113691,179.698907 422.49619,179.528251 424.85,179.15 C432.310407,178.078021 439.316151,174.920063 445.06,170.04 C449.919532,165.995917 453.727969,160.835656 456.16,155 C457.789065,151.088059 458.749102,146.930152 459,142.7 C459.178977,139.665967 459.028093,136.621469 458.55,133.62 C457.352973,126.174681 454.037583,119.231454 449,113.62 C445.66991,109.876903 441.641263,106.819751 437.14,104.62 C431.298553,101.696003 424.862301,100.15623 418.33,100.12 C415.189378,100.157687 412.066816,100.601367 409.04,101.44 C399.521946,103.702479 391.18722,109.427701 385.66,117.5 C380.94057,123.941948 378.58822,131.814904 379,139.79 Z" id="Shape" fill="#EA5753"></path>
            <path d="M319.82,148.75 C319.286839,148.886329 318.745826,148.989856 318.2,149.06 C317.12,149.11 316.03,149.06 314.94,149.06 L205.54,149.06 C204.220755,148.932709 202.889548,149.023933 201.6,149.33 C201.727812,150.980763 202.176173,152.590785 202.92,154.07 C209.08,168.47 220.01,177.32 234.92,181.44 C238.047469,182.377063 241.307224,182.795933 244.57,182.68 C245.98,182.61 247.4,182.61 248.81,182.68 C253.943063,182.816528 259.049209,181.894017 263.81,179.97 C266.23269,179.026989 268.723096,178.268168 271.26,177.7 C275.096749,176.943472 279.056425,177.083789 282.83,178.11 C287.268955,179.261602 291.347237,181.510503 294.69,184.65 C295.687864,185.652007 296.60411,186.732108 297.43,187.88 C299.2,190.07 300.96,192.28 302.69,194.51 C302.933517,194.915629 303.128202,195.348637 303.27,195.8 C301.485312,197.525561 299.528414,199.063603 297.43,200.39 C289.015182,206.041117 279.673288,210.170505 269.83,212.59 C266.153365,213.463241 262.430928,214.130943 258.68,214.59 C253.729029,215.167493 248.740053,215.351403 243.76,215.14 C243.21,215.14 242.67,215.09 242.12,215.14 C237.53,215.4 233.06,214.48 228.6,213.66 C223.259876,212.66851 218.03341,211.140774 213,209.1 C204.314236,205.61222 196.242269,200.757562 189.09,194.72 C181.017321,187.87953 174.475415,179.41594 169.89,169.88 C167.046338,163.900577 165.027893,157.562662 163.89,151.04 C161.268349,136.187893 163.048085,120.893292 169.01,107.04 C171.473759,101.340564 174.630915,95.9666819 178.41,91.04 C181.719726,86.7229318 185.514623,82.8005319 189.72,79.35 C194.502721,75.4111264 199.715903,72.0262485 205.26,69.26 C211.308171,66.2792579 217.70892,64.0751155 224.31,62.7 C227.26,62.07 230.31,61.76 233.31,61.31 C239.07,60.43 244.83,60.67 250.55,60.94 C265.251906,61.9385821 279.367096,67.0956549 291.25,75.81 C299.434252,81.9959021 306.145274,89.9193483 310.9,99.01 C314.596418,106.026985 317.247754,113.546405 318.77,121.33 C319.21,123.55 319.25,125.85 319.66,128.08 C320.78,134.24 319.97,140.45 320.2,146.63 C320.132191,147.345961 320.005088,148.055061 319.82,148.75 L319.82,148.75 Z M205.07,117.58 C205.9,117.68 206.51,117.8 207.12,117.82 C227.52,118.27 276.24,118.02 279.31,117.41 C279.141989,116.697619 278.911083,116.001554 278.62,115.33 C275.93,110.45 272.81,105.94 268.36,102.42 C265.549751,100.205064 262.492777,98.3225589 259.25,96.81 C254.43,94.55 249.25,93.98 244.1,93.4 C243.123034,93.3558355 242.144145,93.416178 241.18,93.58 C240.32,93.67 239.47,93.89 238.6,93.94 C233.059575,94.2922158 227.666467,95.8701865 222.81,98.56 C216.153264,102.101179 210.595055,107.399982 206.74,113.88 C205.973244,115.007305 205.408175,116.259254 205.07,117.58 Z" id="Shape" fill="#EA5753"></path>
            <path d="M0.49,215 C0.49,213.58 0.38,212.51 0.38,211.44 L0.38,126.18 C0.238653153,124.660888 0.412272762,123.12895 0.89,121.68 C0.984599002,121.355509 1.02514093,121.01766 1.01,120.68 C1.53,109.49 7.24,96.37 13.57,88.41 C20.2932238,79.8025735 28.9690837,72.9194733 38.88,68.33 C44.6260742,65.723621 50.6717289,63.8360332 56.88,62.71 C61.9982869,61.7514449 67.2052135,61.3491068 72.41,61.51 C73.06,61.51 73.71,61.51 74.41,61.51 C81.2453786,61.4113865 88.0581508,62.3177345 94.63,64.2 C103.917657,66.6492678 112.592368,71.0087612 120.1,77 C131.726153,85.9924419 139.829883,98.7779342 143,113.13 C143.950768,117.255404 144.423877,121.476476 144.410297,125.71 C144.35,146.62 144.410297,167.52 144.410297,188.43 C144.404757,194.570869 142.226104,200.511683 138.26,205.2 C134.500809,209.927617 129.184974,213.166732 123.26,214.34 C120.73039,214.974998 118.127595,215.270923 115.52,215.22 C113.02,215.07 110.52,215.22 108.01,215.22 C107.26,215.22 106.52,215.14 105.59,215.09 C105.434601,214.454296 105.317722,213.80979 105.24,213.16 C105.24,212.16 105.24,211.16 105.24,210.22 C105.24,183.43 105.32,156.65 105.24,129.87 C105.371943,120.539274 102.153882,111.470517 96.17,104.31 C93.4424602,101.169293 90.0178323,98.7104106 86.17,97.13 C82.1984619,95.3285061 77.8694537,94.45313 73.51,94.57 C70.15,94.69 66.81,94.57 63.51,95.51 C58.2317818,96.9436891 53.4459384,99.7930642 49.67,103.75 C44.93,108.69 42.33,114.7 40.96,121.3 C40.0390364,125.975706 39.6100322,130.734971 39.68,135.5 C39.74,153.36 39.68,171.21 39.68,189.07 C39.6512797,194.541938 37.8358754,199.854717 34.51,204.2 C30.8404094,209.274661 25.4410854,212.831528 19.33,214.2 C16.9255719,214.843983 14.4490939,215.180004 11.96,215.2 C9.13,215.2 6.3,215.2 3.47,215.2 C2.55,215.18 1.7,215.08 0.49,215 Z" id="Path" fill="#EA5753"></path>
            <path d="M518.51,215.55 L518.51,211.27 C518.51,185.143333 518.51,159.02 518.51,132.9 C518.685021,131.38179 518.531553,129.843696 518.06,128.39 C517.847047,127.768925 517.808993,127.101249 517.95,126.46 C518.71,122.21 518.72,117.86 519.75,113.63 C521.796317,104.705752 525.701245,96.3132232 531.21,89 C535.717473,83.1292406 541.180353,78.058498 547.37,74 C554.755256,69.1695809 562.986054,65.7768362 571.63,64 C574.91,63.32 578.23,62.81 581.52,62.22 L581.85,62.22 L591.11,62.22 C591.259331,62.8242651 591.359657,63.4395955 591.41,64.06 C591.41,74.4 591.41,84.7333333 591.41,95.06 C591.357322,95.8476441 591.263864,96.6320292 591.13,97.41 C590.13,97.49 589.32,97.62 588.48,97.63 C582.585852,97.6936464 576.834192,99.4500374 571.91,102.69 C565.57,106.75 561.76,112.69 559.64,119.78 C559.006653,122.181684 558.519097,124.619466 558.18,127.08 C557.766237,130.087906 557.605673,133.125234 557.7,136.16 C557.7,153.353333 557.7,170.55 557.7,187.75 C557.708104,192.872636 556.325622,197.901412 553.7,202.3 C550.138449,208.514262 544.222941,213.031101 537.29,214.83 C535.021401,215.518741 532.660702,215.855984 530.29,215.831395 C527.36,215.74 524.41,215.831395 521.48,215.831395 C520.58,215.78 519.74,215.66 518.51,215.55 Z" id="Path" fill="#EA5753"></path>
            <path d="M609.86,0.71 C611.04,0.61 611.78,0.49 612.52,0.49 C617.190804,0.315573511 621.868052,0.455890967 626.52,0.91 C630.628843,1.46365038 634.530323,3.04970157 637.86,5.52 C643.602754,9.59719234 647.431612,15.8425656 648.46,22.81 C648.780101,24.6227708 648.947355,26.4592277 648.96,28.3 C648.96,42.8866667 648.96,57.4766667 648.96,72.07 L648.96,75.93 C649.531813,75.8325547 650.085055,75.6470163 650.6,75.38 C658.060235,69.1538412 666.876034,64.7630662 676.34,62.56 C680.527602,61.4253488 684.85165,60.8734859 689.19,60.92 C690.49,60.97 691.8,60.92 693.11,60.92 C709.095575,61.2840791 724.501196,66.9789142 736.88,77.1 C739.846098,79.4869074 742.60892,82.1159361 745.14,84.96 C748.538631,88.7719219 751.578189,92.8893846 754.22,97.26 C758.579729,104.537461 761.698939,112.489249 763.45,120.79 C764.15,124.17 764.69,127.58 765.26,130.98 C765.338256,131.643712 765.357393,132.312846 765.32,132.98 C765.32,135.48 765.32,137.98 765.32,140.49 C765.319179,147.643683 764.212788,154.75427 762.04,161.57 C759.265455,170.983124 754.668379,179.75936 748.51,187.4 C745.489713,191.252397 742.07814,194.781264 738.33,197.93 C733.586684,201.924935 728.411134,205.37642 722.9,208.22 C716.084799,211.588998 708.830835,213.985667 701.35,215.34 C694.831884,216.53472 688.185401,216.870911 681.58,216.34 C673.028111,215.735857 664.656338,213.587859 656.87,210 C651.419735,207.53416 646.255666,204.479312 641.47,200.89 C636.709983,197.267842 632.375674,193.118044 628.55,188.52 C624.433156,183.592167 620.924576,178.186604 618.1,172.42 C615.063554,166.278952 612.880044,159.751973 611.61,153.02 C611.02,149.83 610.72,146.6 610.3,143.39 C609.53,137.52 609.83,131.66 609.82,125.8 C609.766667,85.62 609.766667,45.4466667 609.82,5.28 C609.8,3.83 609.83,2.43 609.86,0.71 Z M688.53,179.71 C700.21,180.21 710.2,174.45 716.34,168.22 C723.867808,160.797966 728.048843,150.630614 727.92,140.06 C727.939561,122.047243 715.850053,106.270389 698.452134,101.604321 C681.054214,96.9382533 662.692447,104.548171 653.695796,120.1533 C644.699145,135.758429 647.31423,155.461898 660.07,168.18 C667.75,175.84 677.12,180.05 688.53,179.74 L688.53,179.71 Z" id="Shape" fill="#EA5753"></path>
            <path d="M948.2,60.93 L951.35,60.93 C954.51,60.93 957.66,60.93 960.82,60.93 C969.58,61.05 976.41,64.83 981.7,71.74 C984.246576,75.2701278 985.999951,79.3090317 986.84,83.58 C986.994078,84.5452386 987.037692,85.5248881 986.97,86.5 C986.97,104.9 986.97,123.3 986.97,141.7 C986.917038,143.87011 987.07444,146.040246 987.44,148.18 C987.85,150.29 987.76,152.47 988.15,154.62 C989.153032,160.649996 991.65648,166.330897 995.43,171.14 C999.580722,176.415858 1005.47115,180.045102 1012.05,181.38 C1018.35527,182.794496 1024.92805,182.44856 1031.05,180.38 C1035.41145,178.939017 1039.36951,176.485361 1042.6,173.22 C1046.38095,169.28489 1049.12931,164.47526 1050.6,159.22 C1051.91707,154.857755 1052.59083,150.326728 1052.6,145.77 C1052.53,118.88 1052.6,91.98 1052.6,65.09 C1052.6,63.81 1052.34,62.48 1053.06,61.09 C1053.85,61.03 1054.69,60.91 1055.54,60.91 C1058.54,60.91 1061.64,61 1064.68,60.91 C1069.83247,60.6909742 1074.91278,62.1816687 1079.13,65.15 C1085.67104,69.4092942 1090.0643,76.276035 1091.19,84 C1091.48938,86.0427077 1091.6298,88.1055659 1091.61,90.17 C1091.61,129.03 1091.61,167.896667 1091.61,206.77 C1091.68566,217.539043 1089.56232,228.210198 1085.37,238.13 C1082.56068,244.988601 1078.70117,251.36826 1073.93,257.04 C1067.15011,265.02404 1058.80928,271.537443 1049.42,276.18 C1042.27855,279.633051 1034.70849,282.11829 1026.91,283.57 C1021.71703,284.702846 1016.40095,285.169934 1011.09,284.96 C1010.35,284.96 1009.62,284.83 1008.72,284.76 C1008.59762,284.098797 1008.51414,283.430983 1008.47,282.76 C1008.47,277.76 1008.28,272.76 1008.47,267.76 C1008.73061,262.834479 1010.71667,258.157862 1014.08,254.55 C1016.70123,251.467142 1020.1034,249.146064 1023.93,247.83 C1028.14999,246.351106 1032.07661,244.140691 1035.53,241.3 C1043.6,234.85 1049.09,226.72 1051.32,216.52 C1052.26975,212.170816 1052.65958,207.718054 1052.48,203.27 C1052.48,202.77 1052.33,202.27 1052.23,201.58 C1051.87653,201.689651 1051.53999,201.847827 1051.23,202.05 C1046.63161,206.558347 1041.10225,210.005667 1035.03,212.15 C1031.35792,213.458259 1027.57618,214.435485 1023.73,215.07 C1022.00006,215.260447 1020.25687,215.300597 1018.52,215.19 C1006.75914,215.218866 995.148262,212.550486 984.58,207.39 C976.718319,203.603032 969.688554,198.289916 963.9,191.76 C956.746245,183.793486 951.805419,174.091124 949.57,163.62 C948.92,160.54 948.66,157.43 948.27,154.33 C947.55,148.56 947.84,142.81 947.82,137.06 C947.76,113.11 947.82,89.16 947.82,65.2 C947.70706,63.7654318 947.835508,62.3220801 948.2,60.93 L948.2,60.93 Z" id="Path" fill="#EA5753"></path>
            <path d="M890.59,60.93 L903.24,60.93 C910.054528,60.9255556 916.591004,63.6317968 921.41,68.45 C925.87,72.68 928.16,77.94 929.35,83.8 C929.461956,84.6652903 929.488751,85.5394773 929.43,86.41 L929.43,152.71 C929.32705,157.144294 928.654883,161.546993 927.43,165.81 C925.2359,174.028738 921.379817,181.710273 916.1,188.38 C911.64404,194.027379 906.260732,198.876413 900.18,202.72 C891.715849,208.075768 882.279532,211.711655 872.41,213.42 C865.07,214.78 857.72,214.47 850.35,214.55 C839.72,213.26 829.47,210.8 819.99,205.55 C813.283566,201.910916 807.230622,197.179413 802.08,191.55 C795.946225,184.885639 791.378365,176.935445 788.71,168.28 C787.675349,164.858797 786.876805,161.370595 786.32,157.84 C785.850113,154.611753 785.629461,151.352122 785.66,148.09 C785.613333,120.223333 785.613333,92.3533333 785.66,64.48 L785.66,61.43 C786.290566,61.2035957 786.944728,61.0492805 787.61,60.97 C791.97,60.97 796.32,60.87 800.67,60.97 C802.294157,61.0384716 803.901806,61.3243506 805.45,61.82 C809.509342,62.9954991 813.233735,65.1129554 816.32,68 C820.418713,71.7824726 823.218467,76.7625352 824.32,82.23 C824.562769,83.3916752 824.696682,84.5734579 824.72,85.76 C824.72,104.593333 824.72,123.426667 824.72,142.26 C824.708634,144.105473 824.852474,145.948633 825.15,147.77 C825.53,150 825.48,152.29 825.93,154.53 C826.930886,160.232646 829.302223,165.606761 832.84,170.19 C837.179054,175.905778 843.520412,179.767754 850.59,181 C857.120228,182.294429 863.880833,181.765067 870.13,179.47 C876.085875,177.22868 881.108188,173.038132 884.38,167.58 C887.154381,162.908628 888.969752,157.731081 889.72,152.35 C890.093518,149.777384 890.264045,147.179367 890.23,144.58 C890.23,118.133333 890.23,91.68 890.23,65.22 C890.115692,63.7799374 890.237292,62.3308724 890.59,60.93 Z" id="Path" fill="#EA5753"></path>
            <polygon id="Path" fill="#000000" points="12.81 252.55 0.43 252.55 0.43 244.31 34.12 244.31 34.12 252.55 21.75 252.55 21.75 285 12.81 285"></polygon>
            <polygon id="Path" fill="#000000" points="64.21 244.31 73.15 244.31 73.15 260.4 89.65 260.4 89.65 244.31 98.6 244.31 98.6 285 89.65 285 89.65 268.64 73.15 268.64 73.15 285 64.21 285"></polygon>
            <polygon id="Path" fill="#000000" points="131.59 244.31 162.2 244.31 162.2 252.31 140.42 252.31 140.42 260.56 159.58 260.56 159.58 268.56 140.42 268.56 140.42 277 162.49 277 162.49 285 131.59 285"></polygon>
            <polygon id="Path" fill="#000000" points="234.4 244.31 243.34 244.31 243.34 276.89 263.61 276.89 263.61 285 234.4 285"></polygon>
            <polygon id="Path" fill="#000000" points="294 244.31 302.94 244.31 302.94 285 294 285"></polygon>
            <polygon id="Path" fill="#000000" points="336.33 244.31 367.33 244.31 367.33 252.38 345.33 252.38 345.33 261.15 364.73 261.15 364.73 269.22 345.33 269.22 345.33 285 336.38 285"></polygon>
            <polygon id="Path" fill="#000000" points="397.67 244.31 428.28 244.31 428.28 252.31 406.5 252.31 406.5 260.56 425.67 260.56 425.67 268.56 406.5 268.56 406.5 277 428.57 277 428.57 285 397.67 285"></polygon>
            <path d="M474.34,285.55 C471.230548,285.545798 468.145188,285.004507 465.22,283.95 C462.21217,282.866649 459.448918,281.197822 457.09,279.04 L462.38,272.71 C464.123178,274.152013 466.04585,275.362086 468.1,276.31 C470.114621,277.214958 472.301571,277.672137 474.51,277.65 C476.019813,277.74416 477.524378,277.396686 478.84,276.65 C479.822256,276.054525 480.41,274.978267 480.38,273.83 L480.38,273.72 C480.389488,273.189229 480.280153,272.663054 480.06,272.18 C479.777118,271.658261 479.354715,271.22547 478.84,270.93 C478.049875,270.449691 477.207828,270.060538 476.33,269.77 C474.966292,269.288787 473.577606,268.881528 472.17,268.55 C470.275254,268.096344 468.408722,267.532043 466.58,266.86 C465.053612,266.320639 463.619957,265.548152 462.33,264.57 C461.16799,263.669467 460.238708,262.503577 459.62,261.17 C458.925937,259.596231 458.584622,257.889658 458.62,256.17 L458.62,256 C458.580032,254.279939 458.921545,252.572377 459.62,251 C460.304093,249.517941 461.296117,248.198651 462.53,247.13 C463.844659,246.012891 465.367174,245.166672 467.01,244.64 C468.863654,244.041323 470.802196,243.747502 472.75,243.77 C475.546041,243.738075 478.326689,244.187985 480.97,245.1 C483.46184,245.986464 485.787413,247.284458 487.85,248.94 L483.21,255.67 C481.531841,254.512487 479.739074,253.530654 477.86,252.74 C476.204789,252.040307 474.427011,251.676593 472.63,251.67 C471.249126,251.565569 469.872104,251.91685 468.71,252.67 C467.891193,253.251896 467.406341,254.195493 467.41,255.2 L467.41,255.31 C467.392701,255.905915 467.523253,256.496839 467.79,257.03 C468.112263,257.584977 468.583346,258.038741 469.15,258.34 C470.011033,258.803299 470.91965,259.17211 471.86,259.44 C473.01,259.79 474.45,260.19 476.2,260.66 C478.074506,261.138475 479.912502,261.750027 481.7,262.49 C483.178677,263.086083 484.555246,263.909325 485.78,264.93 C486.857884,265.839759 487.715971,266.981595 488.29,268.27 C488.88432,269.725472 489.170342,271.28838 489.13,272.86 L489.13,272.97 C489.163,274.822365 488.787429,276.659247 488.03,278.35 C487.325645,279.877859 486.282609,281.225257 484.98,282.29 C483.590474,283.400983 481.997309,284.229837 480.29,284.73 C478.359251,285.301282 476.353303,285.577732 474.34,285.55 Z" id="Path" fill="#000000"></path>
            <polygon id="Path" fill="#000000" points="529.7 252.55 517.32 252.55 517.32 244.31 551 244.31 551 252.55 538.64 252.55 538.64 285 529.7 285"></polygon>
            <polygon id="Path" fill="#000000" points="592.54 268.93 576.92 244.31 587.37 244.31 597.07 260.63 607 244.31 617.16 244.31 601.54 268.76 601.54 285 592.54 285"></polygon>
            <polygon id="Path" fill="#000000" points="645.92 244.31 654.92 244.31 654.92 276.89 675.19 276.89 675.19 285 645.92 285"></polygon>
            <polygon id="Path" fill="#000000" points="705.11 244.31 735.72 244.31 735.72 252.31 713.94 252.31 713.94 260.56 733.1 260.56 733.1 268.56 713.94 268.56 713.94 277 736 277 736 285 705.1 285"></polygon>
            <path d="M821.86,244 L830.1,244 L847.53,285 L838.18,285 L834.46,275.88 L817.27,275.88 L813.55,285 L804.43,285 L821.86,244 Z M831.27,268 L825.86,254.81 L820.46,268 L831.27,268 Z" id="Shape" fill="#000000"></path>
            <path d="M877,244.31 L893.61,244.31 C895.827464,244.273014 898.035228,244.611109 900.14,245.31 C901.948128,245.922634 903.609716,246.903243 905.02,248.19 C906.356164,249.429423 907.407071,250.944369 908.1,252.63 C908.837946,254.445537 909.205154,256.390381 909.18,258.35 L909.18,258.47 C909.224772,260.609828 908.787292,262.732288 907.9,264.68 C907.083202,266.421943 905.879239,267.95426 904.38,269.16 C902.831794,270.390363 901.058791,271.307434 899.16,271.86 C897.075445,272.47196 894.912472,272.775181 892.74,272.76 L886,272.76 L886,285 L877,285 L877,244.31 Z M893,264.81 C894.937047,264.935306 896.844239,264.283982 898.3,263 C899.512611,261.866134 900.18534,260.269767 900.15,258.61 L900.15,258.5 C900.270015,256.748555 899.549765,255.044457 898.21,253.91 C896.672134,252.786082 894.791676,252.231135 892.89,252.34 L886,252.34 L886,264.77 L893,264.81 Z" id="Shape" fill="#000000"></path>
            <path d="M939.07,244.31 L955.68,244.31 C957.900682,244.273801 960.111602,244.611862 962.22,245.31 C964.025971,245.927328 965.686648,246.9074 967.1,248.19 C968.433276,249.429796 969.480838,250.944837 970.17,252.63 C970.907946,254.445537 971.275154,256.390381 971.25,258.35 L971.25,258.47 C971.294772,260.609828 970.857292,262.732288 969.97,264.68 C969.156683,266.421299 967.956109,267.953656 966.46,269.16 C964.908118,270.390432 963.131836,271.307442 961.23,271.86 C959.145598,272.472667 956.982519,272.775902 954.81,272.76 L948,272.76 L948,285 L939.05,285 L939.07,244.31 Z M955.07,264.81 C956.978119,264.929637 958.856717,264.293859 960.3,263.04 C961.519515,261.910166 962.196622,260.312047 962.16,258.65 L962.16,258.54 C962.263802,256.778542 961.520776,255.073298 960.16,253.95 C958.62521,252.827559 956.748402,252.272646 954.85,252.38 L948,252.38 L948,264.81 L955.07,264.81 Z" id="Shape" fill="#000000"></path>
        </g>
    </g>
</svg>